<svg xmlns="http://www.w3.org/2000/svg" viewBox="0 0 53.3 53.3"><defs><style>.cls-1{fill:none;}.cls-2{fill:#fff;}</style></defs><title>Asset 8</title><g id="Layer_2" data-name="Layer 2"><g id="Layer_2-2" data-name="Layer 2"><line class="cls-1" x1="37.18" y1="8.24" x2="37.04" y2="8.49"/><line class="cls-1" x1="16.66" y1="44.96" x2="16.47" y2="45.3"/><line class="cls-1" x1="16.66" y1="44.96" x2="16.47" y2="45.3"/><line class="cls-1" x1="37.18" y1="8.24" x2="37.04" y2="8.49"/><path class="cls-2" d="M26.65,0A26.65,26.65,0,1,0,53.3,26.65,26.65,26.65,0,0,0,26.65,0ZM14.21,20A15.43,15.43,0,0,1,37,8.49l-4,7.23a7.15,7.15,0,0,0-7,12.49l-4,7.23a15.53,15.53,0,0,1-5.11-4.63A15.31,15.31,0,0,1,14.08,22,14.61,14.61,0,0,1,14.21,20Zm25,14a15.29,15.29,0,0,1-15.11,13A15.05,15.05,0,0,1,16.66,45l3.9-7a7.29,7.29,0,0,0,7.12-12.73l3.9-7a15.35,15.35,0,0,1,7.83,13.36A15,15,0,0,1,39.23,34Z"/><path class="cls-1" d="M37,8.49l-4,7.23a7.15,7.15,0,0,0-7,12.49l-4,7.23a15.53,15.53,0,0,1-5.11-4.63A15.31,15.31,0,0,1,14.08,22a14.61,14.61,0,0,1,.13-2A15.43,15.43,0,0,1,37,8.49Z"/><path class="cls-1" d="M39.41,31.62A15,15,0,0,1,39.23,34a15.29,15.29,0,0,1-15.11,13A15.05,15.05,0,0,1,16.66,45l3.9-7a7.29,7.29,0,0,0,7.12-12.73l3.9-7a15.35,15.35,0,0,1,7.83,13.36Z"/></g></g></svg>